<?xml version="1.0" encoding="UTF-8" standalone="no"?><!DOCTYPE svg PUBLIC "-//W3C//DTD SVG 1.1//EN" "http://www.w3.org/Graphics/SVG/1.1/DTD/svg11.dtd"><svg width="403px" height="208px" version="1.1" xmlns="http://www.w3.org/2000/svg" xmlns:xlink="http://www.w3.org/1999/xlink" xml:space="preserve" xmlns:serif="http://www.serif.com/" style="fill-rule:evenodd;clip-rule:evenodd;stroke-linejoin:round;stroke-miterlimit:2;"><g transform="matrix(1,0,0,1,-237.977,-3.82923)"><path d="M538.361,211.765c-15.168,0 -29.28,-2.64 -42.336,-7.92c-13.056,-5.28 -24.528,-12.672 -34.416,-22.176c-9.888,-9.504 -17.568,-20.544 -23.04,-33.12c-5.472,-12.576 -8.208,-26.16 -8.208,-40.752c-0,-14.592 2.736,-28.176 8.208,-40.752c5.472,-12.576 13.056,-23.616 22.752,-33.12c9.696,-9.504 21.072,-16.896 34.128,-22.176c13.056,-5.28 27.072,-7.92 42.048,-7.92c17.088,0 33.216,3.504 48.384,10.512c15.168,7.008 27.552,16.656 37.152,28.944l-34.848,31.392c-6.528,-8.448 -14.064,-14.784 -22.608,-19.008c-8.544,-4.224 -17.904,-6.336 -28.08,-6.336c-8.064,0 -15.504,1.488 -22.32,4.464c-6.816,2.976 -12.768,7.056 -17.856,12.24c-5.088,5.184 -9.024,11.328 -11.808,18.432c-2.784,7.104 -4.176,14.88 -4.176,23.328c-0,8.448 1.44,16.272 4.32,23.472c2.88,7.2 6.96,13.44 12.24,18.72c5.28,5.28 11.424,9.408 18.432,12.384c7.008,2.976 14.64,4.464 22.896,4.464c7.872,0 15.024,-1.344 21.456,-4.032c6.432,-2.688 11.952,-6.432 16.56,-11.232c4.608,-4.8 7.872,-10.272 9.792,-16.416l-54.432,0l-0,-42.912l108,0l-0,14.4c-0,15.168 -2.544,29.136 -7.632,41.904c-5.088,12.768 -12.192,23.904 -21.312,33.408c-9.12,9.504 -19.92,16.848 -32.4,22.032c-12.48,5.184 -26.112,7.776 -40.896,7.776Zm-300.384,-3.168l-0,-201.6l103.104,0c13.824,0 26.112,2.736 36.864,8.208c10.752,5.472 19.152,13.056 25.2,22.752c6.048,9.696 9.072,20.784 9.072,33.264c-0,12.672 -3.456,24 -10.368,33.984c-6.912,9.984 -16.032,17.568 -27.36,22.752l44.064,80.64l-55.296,0l-38.016,-73.44l-37.728,0l-0,73.44l-49.536,0Zm49.536,-113.76l48.96,0c7.68,0 13.872,-2.112 18.576,-6.336c4.704,-4.224 7.056,-9.696 7.056,-16.416c-0,-6.72 -2.352,-12.192 -7.056,-16.416c-4.704,-4.224 -10.896,-6.336 -18.576,-6.336l-48.96,0l-0,45.504Z" style="fill-rule:nonzero;"/></g></svg>