<svg xmlns="http://www.w3.org/2000/svg" viewBox="0 0 491 491"><defs><style>.cls-1{fill:#fcee21;}</style></defs><g id="Layer_2" data-name="Layer 2"><g id="Layer_1-2" data-name="Layer 1"><circle class="cls-1" cx="245.54" cy="244.17" r="115.12"/><rect class="cls-1" x="44.38" y="187.98" width="23.58" height="112.35" rx="8.5" transform="translate(-187.98 300.33) rotate(-90)"/><rect class="cls-1" x="423.04" y="187.98" width="23.58" height="112.35" rx="8.5" transform="translate(190.67 678.98) rotate(-90)"/><rect class="cls-1" x="99.22" y="55.52" width="23.58" height="112.35" rx="8.5" transform="translate(-46.46 111.21) rotate(-45)"/><rect class="cls-1" x="366.97" y="323.27" width="23.58" height="112.35" rx="8.5" transform="translate(-157.37 378.96) rotate(-45)"/><rect class="cls-1" x="367.06" y="55.45" width="23.58" height="112.35" rx="8.5" transform="translate(189.9 -235.2) rotate(45)"/><rect class="cls-1" x="99.32" y="323.2" width="23.58" height="112.35" rx="8.5" transform="translate(300.8 32.55) rotate(45)"/><rect class="cls-1" x="234.58" width="23.58" height="112.35" rx="8.5"/><rect class="cls-1" x="234.58" y="378.65" width="23.58" height="112.35" rx="8.5"/></g></g></svg>