<?xml version="1.0" encoding="UTF-8" standalone="no"?>
<!DOCTYPE svg PUBLIC "-//W3C//DTD SVG 1.1//EN" "http://www.w3.org/Graphics/SVG/1.1/DTD/svg11.dtd">
<svg width="100%" height="100%" viewBox="0 0 260 260" version="1.1" xmlns="http://www.w3.org/2000/svg" xmlns:xlink="http://www.w3.org/1999/xlink" xml:space="preserve" xmlns:serif="http://www.serif.com/" style="fill-rule:evenodd;clip-rule:evenodd;stroke-linecap:round;stroke-linejoin:round;stroke-miterlimit:1.5;">
    <g transform="matrix(1,0,0,1,-0.312964,0.0270052)">
        <g transform="matrix(0.972025,0,0,0.972511,-1.9234,-0.96157)">
            <path d="M268.574,29.328C268.574,13.913 256.053,1.398 240.63,1.398L30.682,1.398C15.259,1.398 2.738,13.913 2.738,29.328L2.738,239.304C2.738,254.719 15.259,267.234 30.682,267.234L240.63,267.234C256.053,267.234 268.574,254.719 268.574,239.304L268.574,29.328Z" style="fill:rgb(234,234,234);stroke:black;stroke-width:0.87px;"/>
        </g>
        <g transform="matrix(1.57041,0,0,2.09317,-761.326,-533.432)">
            <path d="M519.351,287.02L519.351,340.371C519.351,341.55 518.394,342.507 517.215,342.507L501.162,342.507C499.983,342.507 499.026,341.55 499.026,340.371L499.026,267.843C499.026,266.663 499.983,265.706 501.162,265.706L517.215,265.706C518.195,265.706 519.021,266.367 519.273,267.267L633.503,267.267C634.649,267.267 635.58,268.197 635.58,269.343L635.58,284.943C635.58,286.089 634.649,287.02 633.503,287.02L519.351,287.02Z" style="fill:rgb(250,80,10);stroke:black;stroke-width:0.46px;"/>
        </g>
        <g transform="matrix(1.57041,0,0,2.09317,-761.326,-533.432)">
            <path d="M529.171,294.235C529.482,294.05 529.844,293.944 530.231,293.944L634.149,293.944C634.44,293.944 634.717,294.004 634.969,294.112C636.106,294.218 636.998,295.176 636.998,296.34L636.998,366.739C636.998,367.974 635.995,368.976 634.76,368.976L617.95,368.976C617.756,368.976 617.568,368.952 617.389,368.905L501.054,368.905C499.908,368.905 498.977,367.975 498.977,366.829L498.977,351.229C498.977,350.083 499.908,349.152 501.054,349.152L615.713,349.152L615.713,343.281L545.966,343.281C545.741,343.358 545.499,343.399 545.248,343.399L528.437,343.399C527.202,343.399 526.2,342.397 526.2,341.162L526.2,296.473C526.2,295.238 527.202,294.235 528.437,294.235L529.171,294.235ZM547.485,313.697L547.485,323.528L615.713,323.528L615.713,313.697L547.485,313.697Z" style="fill:rgb(250,80,10);stroke:black;stroke-width:0.46px;"/>
        </g>
    </g>
</svg>
